<svg width="26" height="26" fill="none" xmlns="http://www.w3.org/2000/svg"><path fill-rule="evenodd" clip-rule="evenodd" d="M8.303 10.742a.61.61 0 01.862 0L13 14.576l3.835-3.834a.61.61 0 11.861.862l-4.265 4.265a.61.61 0 01-.862 0l-4.265-4.265a.61.61 0 010-.861z" fill="#000"/><path fill-rule="evenodd" clip-rule="evenodd" d="M13 3.453a.61.61 0 01.61.61v11.372a.61.61 0 01-1.22 0V4.062a.61.61 0 01.61-.609z" fill="#000"/><path fill-rule="evenodd" clip-rule="evenodd" d="M4.063 14.828a.61.61 0 01.609.61v5.687a.203.203 0 00.203.203h16.25a.203.203 0 00.203-.203v-5.688a.61.61 0 011.219 0v5.688a1.422 1.422 0 01-1.422 1.422H4.875a1.422 1.422 0 01-1.422-1.422v-5.688a.61.61 0 01.61-.609z" fill="#000"/></svg>
